<svg id="Layer_1" data-name="Layer 1" xmlns="http://www.w3.org/2000/svg" viewBox="0 0 1948.2 461.41"><defs><style>.cls-1{fill:#183d43;}.cls-2{fill:#5ac09b;}.cls-3{fill:#56bf9a;}.cls-4{fill:#1d3f44;}</style></defs><path class="cls-1" d="M499.08,123.28v70.45a4,4,0,0,0,4,4h120a7.68,7.68,0,0,1,7.68,7.69v58.62a7.68,7.68,0,0,1-7.68,7.68h-120a4,4,0,0,0-4,4V410.5a7.69,7.69,0,0,1-7.68,7.69H424.7A7.69,7.69,0,0,1,417,410.5V50.92a7.69,7.69,0,0,1,7.69-7.69H648a7.69,7.69,0,0,1,7.69,7.69v60.64a7.69,7.69,0,0,1-7.69,7.69H503.12A4,4,0,0,0,499.08,123.28Z"/><path class="cls-1" d="M739.63,125.3a42.88,42.88,0,0,1-30.54-12.91q-12.92-12.92-12.92-31.66t12.92-31.42Q722,36.65,740.76,36.64a42.91,42.91,0,0,1,31.16,12.67Q784.85,62,784.84,80.73T772,112.37A44,44,0,0,1,739.63,125.3Zm-37.38,286V171.75a6.91,6.91,0,0,1,6.92-6.91h64.2a6.91,6.91,0,0,1,6.92,6.91V411.27a6.91,6.91,0,0,1-6.92,6.91h-64.2A6.91,6.91,0,0,1,702.25,411.27Z"/><path class="cls-1" d="M910.57,418.18h-65a6.52,6.52,0,0,1-6.52-6.52V171.36a6.52,6.52,0,0,1,6.52-6.52h61.56a6.51,6.51,0,0,1,6.4,5.29l1.53,7.93a6.49,6.49,0,0,0,10.83,3.53,81.9,81.9,0,0,1,23.87-15.74q20.52-9.12,45.35-9.12,45.09,0,70.17,27.62t25.08,77.26V411.66a6.52,6.52,0,0,1-6.52,6.52h-65a6.52,6.52,0,0,1-6.53-6.52V280.36q0-23.81-12.16-38.25t-32.42-14.44q-23.32,0-37,13.93t-13.68,37.75V411.66A6.52,6.52,0,0,1,910.57,418.18Z"/><path class="cls-1" d="M1132.42,291q0-40,18-70.18A124,124,0,0,1,1200.07,174q31.67-16.72,72.2-16.72t72,16.72a124.51,124.51,0,0,1,49.4,46.86q18,30.17,18,70.18t-18,69.92a125,125,0,0,1-49.4,46.62q-31.42,16.72-72,16.72t-72.2-16.72a124.55,124.55,0,0,1-49.66-46.62Q1132.43,331,1132.42,291Zm78.54-.51q0,19.27,7.86,33.7a55.86,55.86,0,0,0,21.53,22.3q13.68,7.86,31.92,7.85t31.92-7.85a54.18,54.18,0,0,0,21.28-22.3q7.6-14.44,7.6-33.7t-7.6-33.44a54.62,54.62,0,0,0-21.28-22q-13.68-7.84-31.92-7.85T1240.35,235a56.35,56.35,0,0,0-21.53,22Q1210.95,271.26,1211,290.49Z"/><path class="cls-2" d="M1514.23,413.68,1421,174.49a7.08,7.08,0,0,1,6.59-9.65h68.73a7.07,7.07,0,0,1,6.68,4.75l29.25,83.92q9.61,27.87,16.47,49.91,1,3.15,1.85,6a7.07,7.07,0,0,0,13.51.07q1.34-4.2,2.88-8.89,7.33-22.29,17-47.12l32.2-84.13a7.09,7.09,0,0,1,6.61-4.54h65.58a7.08,7.08,0,0,1,6.53,9.8l-100,239.19a7.06,7.06,0,0,1-6.53,4.35h-67.46A7.09,7.09,0,0,1,1514.23,413.68Z"/><path class="cls-2" d="M1794.67,424.77q-40,0-63.59-22t-23.56-59q0-35,24.07-55.74t69.67-24.32l70.93-5.57V254q0-12.66-5.06-21a32.06,32.06,0,0,0-14.45-12.67q-9.37-4.31-23.55-4.31-24.84,0-37.75,9.12a29.07,29.07,0,0,0-12.22,18.76,9.24,9.24,0,0,1-9,7.59h-47a9.19,9.19,0,0,1-9.09-10.16,83.06,83.06,0,0,1,14.21-40Q1743,180,1770.1,168.38t63.08-11.65q37,0,62.57,13.17a89.61,89.61,0,0,1,39,38.51q13.43,25.35,13.43,61.82V409a9.14,9.14,0,0,1-9.14,9.14h-51.92a9.14,9.14,0,0,1-9-7.77l-.46-3.05a9.13,9.13,0,0,0-15.26-5.28,74.22,74.22,0,0,1-16.8,11.29Q1823,424.77,1794.67,424.77ZM1822,367q22.29,0,36.48-10.9t14.19-32.68v-3.68a9.14,9.14,0,0,0-10-9.11l-29.57,2.66q-25.35,2-35.72,8.36t-10.39,18.49q0,13.68,8.61,20.27T1822,367Z"/><path class="cls-3" d="M24.22,355.23,300.44,135.75V0l-265,197a27.72,27.72,0,0,0-11.19,22.26Z"/><path class="cls-3" d="M79.91,394.84l220.62-170.9.51,223.7a13.74,13.74,0,0,1-13.74,13.77H93.65a13.74,13.74,0,0,1-13.74-13.74Z"/><path class="cls-4" d="M4.81,409.51,270.45,199.29a7,7,0,0,0,1-10l-14-16.4a7,7,0,0,1,5.34-11.57H327a7,7,0,0,1,7,7v68.28A7,7,0,0,1,322,241.44l-14.1-14.58a7,7,0,0,0-9.39-.63L27.91,439.3a12.68,12.68,0,0,1-18-2.37L2.52,427A12.67,12.67,0,0,1,4.81,409.51Z"/></svg>