<svg id="Layer_1" data-name="Layer 1" xmlns="http://www.w3.org/2000/svg" viewBox="0 0 370.88 512.32"><defs><style>.cls-1{fill:#56bf9a;}.cls-2{fill:#1d3f44;}</style></defs><path class="cls-1" d="M26.89,394.42l306.7-243.7V0L39.32,218.71a30.78,30.78,0,0,0-12.43,24.71Z"/><path class="cls-1" d="M88.72,438.4l245-189.76L334.26,497A15.27,15.27,0,0,1,319,512.32H104a15.26,15.26,0,0,1-15.26-15.26Z"/><path class="cls-2" d="M5.34,454.69,300.28,221.28a7.79,7.79,0,0,0,1.1-11.17l-15.51-18.2a7.8,7.8,0,0,1,5.94-12.85h71.27a7.8,7.8,0,0,1,7.8,7.79v75.81a7.8,7.8,0,0,1-13.4,5.42l-15.66-16.19a7.8,7.8,0,0,0-10.42-.7L31,487.76a14.07,14.07,0,0,1-20-2.63l-8.22-11A14.06,14.06,0,0,1,5.34,454.69Z"/></svg>